<svg xmlns="http://www.w3.org/2000/svg" width="20" height="20" viewBox="0 0 20 20" fill="none">
  <path d="M3.95837 5.8335C3.6132 5.8335 3.33337 6.11332 3.33337 6.4585C3.33337 6.80367 3.6132 7.0835 3.95837 7.0835V5.8335ZM16.0417 7.0835C16.3869 7.0835 16.6667 6.80367 16.6667 6.4585C16.6667 6.11332 16.3869 5.8335 16.0417 5.8335V7.0835ZM3.95837 7.0835H16.0417V5.8335H3.95837V7.0835Z" fill="#505050"/>
  <path d="M5.625 9.1665C5.27983 9.1665 5 9.44634 5 9.7915C5 10.1367 5.27983 10.4165 5.625 10.4165V9.1665ZM14.375 10.4165C14.7202 10.4165 15 10.1367 15 9.7915C15 9.44634 14.7202 9.1665 14.375 9.1665V10.4165ZM5.625 10.4165H14.375V9.1665H5.625V10.4165Z" fill="#505050"/>
  <path d="M7.29163 12.5C6.94645 12.5 6.66663 12.7798 6.66663 13.125C6.66663 13.4702 6.94645 13.75 7.29163 13.75V12.5ZM12.7083 13.75C13.0535 13.75 13.3333 13.4702 13.3333 13.125C13.3333 12.7798 13.0535 12.5 12.7083 12.5V13.75ZM7.29163 13.75H12.7083V12.5H7.29163V13.75Z" fill="#505050"/>
</svg>