<svg width="24" height="24" viewBox="0 0 24 24" fill="none" xmlns="http://www.w3.org/2000/svg">
<path d="M15.1058 0.423177C18.18 1.24639 20.801 3.25636 22.3923 6.01089C23.9836 8.76543 24.4148 12.0389 23.5911 15.1112C22.7674 18.1835 20.7562 20.8029 18 22.3933C15.2438 23.9836 11.9683 24.4145 8.8942 23.5913C8.50993 23.4884 8.18231 23.2372 7.98339 22.8929C7.78448 22.5485 7.73058 22.1394 7.83354 21.7553C7.93651 21.3713 8.18791 21.0439 8.53243 20.8451C8.87696 20.6463 9.28639 20.5924 9.67065 20.6953C11.39 21.1557 13.2074 21.0963 14.893 20.5245C16.5785 19.9526 18.0566 18.8941 19.1402 17.4828C20.2238 16.0714 20.8643 14.3707 20.9807 12.5955C21.0971 10.8204 20.6842 9.0506 19.7942 7.50999C18.9042 5.96937 17.5771 4.72711 15.9806 3.9403C14.3841 3.15349 12.5901 2.85747 10.8253 3.08967C9.06049 3.32187 7.40422 4.07186 6.06593 5.2448C4.72764 6.41774 3.76742 7.96096 3.30672 9.67929C3.20376 10.0633 2.95236 10.3908 2.60783 10.5896C2.26331 10.7883 1.85388 10.8422 1.46961 10.7393C1.08534 10.6364 0.757715 10.3852 0.558803 10.0408C0.359891 9.69653 0.305988 9.28734 0.408952 8.90331C1.23267 5.83102 3.24384 3.21159 6.00004 1.62125C8.75624 0.0309225 12.0317 -0.400039 15.1058 0.423177Z" fill="#282929"/>
<path d="M1.04844e-06 11.9927C1.3265e-06 8.81203 1.26428 5.76163 3.51471 3.51256C5.76513 1.26349 8.81737 -2.61228e-05 12 -2.58446e-05C15.1825 -2.55664e-05 18.2348 1.26349 20.4852 3.51256C22.7356 5.76163 23.9999 8.81203 23.9999 11.9927C23.9999 12.3903 23.8419 12.7716 23.5606 13.0527C23.2793 13.3338 22.8977 13.4918 22.4999 13.4918C22.1021 13.4918 21.7206 13.3338 21.4393 13.0527C21.158 12.7716 20.9999 12.3903 20.9999 11.9927C20.9999 10.2137 20.4721 8.47474 19.4832 6.9956C18.4942 5.51645 17.0886 4.3636 15.4441 3.68282C13.7996 3.00205 11.99 2.82393 10.2442 3.17098C8.49833 3.51804 6.89469 4.37468 5.63602 5.63259C4.37735 6.8905 3.52019 8.49318 3.17292 10.2379C2.82566 11.9827 3.00389 13.7912 3.68507 15.4348C4.36626 17.0783 5.5198 18.483 6.99984 19.4714C8.47988 20.4597 10.2199 20.9872 12 20.9872C12.3978 20.9872 12.7793 21.1452 13.0606 21.4263C13.3419 21.7074 13.4999 22.0887 13.4999 22.4863C13.4999 22.8839 13.3419 23.2652 13.0606 23.5463C12.7793 23.8275 12.3978 23.9854 12 23.9854C8.81737 23.9854 5.76513 22.7219 3.5147 20.4728C1.26428 18.2238 7.70374e-07 15.1734 1.04844e-06 11.9927Z" fill="white"/>
</svg>
